<svg xmlns="http://www.w3.org/2000/svg" version="1.1" xmlns:xlink="http://www.w3.org/1999/xlink" xmlns:svgjs="http://svgjs.com/svgjs" width="210.64" height="191.46"><svg id="SvgjsSvg1002" data-name="Livello 1" xmlns="http://www.w3.org/2000/svg" viewBox="0 0 210.64 191.46"><path id="SvgjsPath1001" d="M70.42,86.61c20,0,35.72,14.9,35.72,34.44s-15.42,34.43-35.72,34.43c-11.31,0-21.59-3.85-28.79-10.53V97.4C49.09,90.21,58.85,86.61,70.42,86.61ZM147,121.05C147,82,116.42,51.14,77.61,51.14a61.69,61.69,0,0,0-36,11.31V0L0,9v179.9H41.12v-7.71a68.13,68.13,0,0,0,35.21,9.51C115.91,190.69,147,160.11,147,121.05Z" style="fill:#424145"></path><circle id="SvgjsCircle1000" cx="182.19" cy="163.01" r="28.45" style="fill:#39b772"></circle></svg><style>@media (prefers-color-scheme: light) { :root { filter: none; } }
@media (prefers-color-scheme: dark) { :root { filter: invert(100%); } }
</style></svg>