<svg id="Livello_1" data-name="Livello 1" xmlns="http://www.w3.org/2000/svg" viewBox="0 0 810.64 191.46"><path id="b" d="M70.42,86.61c20,0,35.72,14.9,35.72,34.44s-15.42,34.43-35.72,34.43c-11.31,0-21.59-3.85-28.79-10.53V97.4C49.09,90.21,58.85,86.61,70.42,86.61ZM147,121.05C147,82,116.42,51.14,77.61,51.14a61.69,61.69,0,0,0-36,11.31V0L0,9v179.9H41.12v-7.71a68.13,68.13,0,0,0,35.21,9.51C115.91,190.69,147,160.11,147,121.05Z" style="fill:#424145"/><path id="o_1" d="M210.23,155.48c-18.77,0-33.16-15.16-33.16-34.43,0-19.54,14.65-34.7,33.16-34.7s33.15,15.16,33.15,34.7C243.38,140.32,229,155.48,210.23,155.48Zm-73.76-34.43c0,39.57,32.38,70.41,73.76,70.41S284,160.62,284,121.05,251.6,50.37,210.23,50.37,136.47,81.47,136.47,121.05Z" style="fill:#424145"/><path id="o_2" d="M347.21,155.48c-18.76,0-33.16-15.16-33.16-34.43,0-19.54,14.65-34.7,33.16-34.7s33.15,15.16,33.15,34.7C380.36,140.32,366,155.48,347.21,155.48Zm-73.76-34.43c0,39.57,32.38,70.41,73.76,70.41S421,160.62,421,121.05s-32.39-70.68-73.76-70.68S273.45,81.47,273.45,121.05Z" style="fill:#424145"/><polygon id="v" points="454.89 188.9 495.5 188.9 553.58 52.94 509.37 52.94 475.71 136.21 442.04 52.94 396.81 52.94 454.89 188.9" style="fill:#424145"/><path id="e" d="M599.58,84.55c13.37,0,24.16,8.48,28.53,21.59h-56.8C575.42,92.52,585.7,84.55,599.58,84.55Zm60.65,86.35-27.5-24.41c-6.42,6.68-15.93,10.28-27.24,10.28-15.67,0-28-8.74-33.41-21.59H669V124.9c0-42.92-28.78-74.27-68.62-74.27s-70.93,30.84-70.93,70.42,32.38,70.41,74,70.41C626.05,191.46,643,185.3,660.23,170.9Z" style="fill:#424145"/><path id="r" d="M663.32,188.89H705V102.54a37.1,37.1,0,0,1,31.61-17.22,47.69,47.69,0,0,1,19.79,4.12V53.2c-3.6-2.31-7.71-3.09-15.68-3.34A44.89,44.89,0,0,0,705,66.56V52.94H663.32Z" style="fill:#424145"/><circle id="green_point" cx="782.19" cy="163.01" r="28.45" style="fill:#39b772"/></svg>
